<svg width="185" height="185" viewBox="0 0 185 185" fill="none" xmlns="http://www.w3.org/2000/svg">
<rect width="185" height="185" fill="#F79817"/>
<path d="M67.0703 105.699H84.5898C84.2383 111.441 82.6562 116.539 79.8438 120.992C77.0703 125.445 73.1836 128.922 68.1836 131.422C63.2227 133.922 57.2461 135.172 50.2539 135.172C44.7852 135.172 39.8828 134.234 35.5469 132.359C31.2109 130.445 27.5 127.711 24.4141 124.156C21.3672 120.602 19.043 116.305 17.4414 111.266C15.8398 106.227 15.0391 100.582 15.0391 94.332V88.4141C15.0391 82.1641 15.8594 76.5195 17.5 71.4805C19.1797 66.4023 21.5625 62.0859 24.6484 58.5312C27.7734 54.9766 31.5039 52.2422 35.8398 50.3281C40.1758 48.4141 45.0195 47.457 50.3711 47.457C57.4805 47.457 63.4766 48.7461 68.3594 51.3242C73.2812 53.9023 77.0898 57.457 79.7852 61.9883C82.5195 66.5195 84.1602 71.6758 84.707 77.457H67.1289C66.9336 74.0195 66.25 71.1094 65.0781 68.7266C63.9062 66.3047 62.1289 64.4883 59.7461 63.2773C57.4023 62.0273 54.2773 61.4023 50.3711 61.4023C47.4414 61.4023 44.8828 61.9492 42.6953 63.043C40.5078 64.1367 38.6719 65.7969 37.1875 68.0234C35.7031 70.25 34.5898 73.0625 33.8477 76.4609C33.1445 79.8203 32.793 83.7656 32.793 88.2969V94.332C32.793 98.7461 33.125 102.633 33.7891 105.992C34.4531 109.312 35.4688 112.125 36.8359 114.43C38.2422 116.695 40.0391 118.414 42.2266 119.586C44.4531 120.719 47.1289 121.285 50.2539 121.285C53.9258 121.285 56.9531 120.699 59.3359 119.527C61.7188 118.355 63.5352 116.617 64.7852 114.312C66.0742 112.008 66.8359 109.137 67.0703 105.699ZM153.027 83.4336V97.1445H108.496V83.4336H153.027ZM113.711 48.6875V134H96.1328V48.6875H113.711ZM165.566 48.6875V134H148.047V48.6875H165.566Z" fill="black"/>
</svg>
